# xmcd
#
# Track frame offsets:
#	150
#	18296
#	35543
#	60184
#	78237
#	109385
#	117137
#	163305
#	190059
#	208300
#	241295
#	276893
#
# Disc length: 4030 seconds
#
# Revision: 1
# Processed by: cddbd v1.5.2PL0 Copyright (c) Steve Scherf et al.
# Submitted via: audiograbber 1.83.01
#
DISCID=a00fbc0c
DTITLE=Jonny Lang - Live At The Ryman
DYEAR=2010
DGENRE=Blues
TTITLE0=One Person At A Time
TTITLE1=Bump In The Road
TTITLE2=Turn Around
TTITLE3=Give Me Up Again
TTITLE4=A Quitter Never Wins
TTITLE5=Red Light (Band Intros)
TTITLE6=Red Light
TTITLE7=Don't Stop For Anything
TTITLE8=Thankful
TTITLE9=I Am
TTITLE10=Breakin' Me
TTITLE11=Lie To Me
EXTD=
EXTT0=
EXTT1=
EXTT2=
EXTT3=
EXTT4=
EXTT5=
EXTT6=
EXTT7=
EXTT8=
EXTT9=
EXTT10=
EXTT11=
PLAYORDER=
